# Blender v2.92.0 Alpha OBJ File: ''
# www.blender.org
mtllib banner.mtl
o Cube.004_Cube.006
v -2.844367 -4.202405 5.256887
v -2.844367 1.082833 1.786709
v -2.844367 0.930638 1.554908
v -2.844367 -4.354601 5.025086
v -2.640046 0.930638 1.554908
v -2.640046 -4.354601 5.025086
v -2.640046 1.082833 1.786709
v -2.640046 -4.202405 5.256887
v -3.665766 -1.472594 1.848994
v -3.665766 1.928107 1.848995
v -3.665766 1.928107 1.480883
v -3.665766 -1.472594 1.480882
v 4.866373 1.928107 1.480883
v 4.866373 -1.472594 1.480882
v 4.866373 1.928107 1.848995
v 4.866373 -1.472594 1.848994
v -3.399723 -3.322164 1.803587
v -3.399723 -1.204911 1.803587
v -3.399723 -1.204911 1.526289
v -3.399723 -3.322164 1.526287
v -3.195402 -1.204911 1.526289
v -3.195402 -3.322164 1.526287
v -3.195402 -1.204911 1.803587
v -3.195402 -3.322164 1.803587
v 4.313883 -3.322164 1.803587
v 4.313883 -1.204911 1.803587
v 4.313883 -1.204911 1.526289
v 4.313883 -3.322164 1.526287
v 4.518205 -1.204911 1.526289
v 4.518205 -3.322164 1.526287
v 4.518205 -1.204911 1.803587
v 4.518205 -3.322164 1.803587
v 0.334819 -3.322164 1.803587
v 0.334819 -1.204911 1.803587
v 0.334819 -1.204911 1.526289
v 0.334819 -3.322164 1.526287
v 0.539139 -1.204911 1.526289
v 0.539139 -3.322164 1.526287
v 0.539139 -1.204911 1.803587
v 0.539139 -3.322164 1.803587
v 3.791490 -4.202405 5.256887
v 3.791490 1.082833 1.786709
v 3.791490 0.930637 1.554908
v 3.791490 -4.354601 5.025086
v 3.995810 0.930637 1.554908
v 3.995810 -4.354601 5.025086
v 3.995810 1.082833 1.786709
v 3.995810 -4.202405 5.256887
vt 0.052520 0.089835
vt 0.062157 0.881989
vt 0.051165 0.881929
vt 0.063511 0.089894
vt 0.073149 0.882048
vt 0.085495 0.090013
vt 0.084141 0.882107
vt 0.095133 0.882167
vt 0.073871 0.459560
vt 0.084804 0.494360
vt 0.073812 0.494300
vt 0.875000 0.500000
vt 0.625000 0.750000
vt 0.625000 0.500000
vt 0.625000 0.000000
vt 0.375000 0.250000
vt 0.375000 0.000000
vt 0.998031 0.997563
vt 0.001969 0.005245
vt 0.998031 0.005245
vt 0.625000 0.500000
vt 0.375000 0.750000
vt 0.375000 0.500000
vt 0.518479 0.910225
vt 0.481521 0.947183
vt 0.481521 0.910225
vt 0.125000 0.750000
vt 0.125000 0.500000
vt 0.875000 0.500000
vt 0.625000 0.750000
vt 0.051494 0.689949
vt 0.062939 0.424761
vt 0.062485 0.690008
vt 0.073477 0.690068
vt 0.073931 0.424821
vt 0.084469 0.690127
vt 0.084923 0.424880
vt 0.095461 0.690187
vt 0.073871 0.459560
vt 0.084804 0.494360
vt 0.073812 0.494300
vt 0.875000 0.500000
vt 0.625000 0.750000
vt 0.625000 0.500000
vt 0.051494 0.689949
vt 0.062939 0.424761
vt 0.062485 0.690008
vt 0.073477 0.690068
vt 0.073931 0.424821
vt 0.084469 0.690127
vt 0.084923 0.424880
vt 0.095461 0.690187
vt 0.073871 0.459560
vt 0.084804 0.494360
vt 0.073812 0.494300
vt 0.875000 0.500000
vt 0.625000 0.750000
vt 0.625000 0.500000
vt 0.051494 0.689949
vt 0.062939 0.424761
vt 0.062485 0.690008
vt 0.073477 0.690068
vt 0.073931 0.424821
vt 0.084469 0.690127
vt 0.084923 0.424880
vt 0.095461 0.690187
vt 0.073871 0.459560
vt 0.084804 0.494360
vt 0.073812 0.494300
vt 0.875000 0.500000
vt 0.625000 0.750000
vt 0.625000 0.500000
vt 0.051165 0.881929
vt 0.063511 0.089894
vt 0.062157 0.881989
vt 0.073149 0.882048
vt 0.074503 0.089954
vt 0.084141 0.882107
vt 0.085495 0.090013
vt 0.095133 0.882167
vt 0.073871 0.459560
vt 0.084804 0.494360
vt 0.073812 0.494300
vt 0.875000 0.500000
vt 0.625000 0.750000
vt 0.625000 0.500000
vt 0.074503 0.089954
vt 0.096487 0.090072
vt 0.084863 0.459620
vt 0.875000 0.750000
vt 0.625000 0.250000
vt 0.001969 0.997563
vt 0.518479 0.947183
vt 0.875000 0.750000
vt 0.051947 0.424702
vt 0.095915 0.424939
vt 0.084863 0.459620
vt 0.875000 0.750000
vt 0.090029 0.221719
vt 0.090029 0.528281
vt 0.077325 0.528281
vt 0.064621 0.528281
vt 0.064621 0.221719
vt 0.051917 0.528281
vt 0.051917 0.221719
vt 0.625000 1.000000
vt -1.283816 1.000000
vt 0.084863 0.459620
vt 0.875000 0.750000
vt 0.051947 0.424702
vt 0.095915 0.424939
vt 0.084863 0.459620
vt 0.875000 0.750000
vt 0.052520 0.089835
vt 0.096487 0.090072
vt 0.084863 0.459620
vt 0.875000 0.750000
vn -1.0000 0.0000 0.0000
vn 0.0000 -0.5488 -0.8359
vn 1.0000 0.0000 0.0000
vn 0.0000 0.5488 0.8359
vn 0.0000 -0.8359 0.5488
vn 0.0000 -0.8359 0.5489
vn 0.0000 0.8359 -0.5488
vn 0.0000 0.0000 -1.0000
vn 0.0000 -0.0000 1.0000
vn 0.0000 -1.0000 -0.0000
vn 0.0000 1.0000 0.0000
vn 0.0000 0.8359 -0.5489
usemtl None
s 1
f 2/1/1 4/2/1 1/3/1
f 3/4/2 6/5/2 4/2/2
f 6/5/3 7/6/3 8/7/3
f 7/6/4 1/8/4 8/7/4
f 6/9/5 1/10/6 4/11/5
f 3/12/7 7/13/7 5/14/7
f 10/15/1 12/16/1 9/17/1
f 11/18/8 14/19/8 12/20/8
f 13/21/3 16/22/3 14/23/3
f 15/24/9 9/25/9 16/26/9
f 14/23/10 9/27/10 12/28/10
f 11/29/11 15/30/11 13/21/11
f 17/31/1 19/32/1 20/33/1
f 19/32/8 22/34/8 20/33/8
f 21/35/3 24/36/3 22/34/3
f 23/37/9 17/38/9 24/36/9
f 22/39/10 17/40/10 20/41/10
f 19/42/11 23/43/11 21/44/11
f 25/45/1 27/46/1 28/47/1
f 27/46/8 30/48/8 28/47/8
f 29/49/3 32/50/3 30/48/3
f 31/51/9 25/52/9 32/50/9
f 30/53/10 25/54/10 28/55/10
f 27/56/11 31/57/11 29/58/11
f 33/59/1 35/60/1 36/61/1
f 35/60/8 38/62/8 36/61/8
f 37/63/3 40/64/3 38/62/3
f 39/65/9 33/66/9 40/64/9
f 38/67/10 33/68/10 36/69/10
f 35/70/11 39/71/11 37/72/11
f 41/73/1 43/74/1 44/75/1
f 43/74/2 46/76/2 44/75/2
f 45/77/3 48/78/3 46/76/3
f 47/79/4 41/80/4 48/78/4
f 46/81/5 41/82/5 44/83/5
f 43/84/12 47/85/12 45/86/12
f 2/1/1 3/4/1 4/2/1
f 3/4/2 5/87/2 6/5/2
f 6/5/3 5/87/3 7/6/3
f 7/6/4 2/88/4 1/8/4
f 6/9/5 8/89/6 1/10/6
f 3/12/7 2/90/7 7/13/7
f 10/15/1 11/91/1 12/16/1
f 11/18/8 13/92/8 14/19/8
f 13/21/3 15/30/3 16/22/3
f 15/24/9 10/93/9 9/25/9
f 14/23/10 16/22/10 9/27/10
f 11/29/11 10/94/11 15/30/11
f 17/31/1 18/95/1 19/32/1
f 19/32/8 21/35/8 22/34/8
f 21/35/3 23/37/3 24/36/3
f 23/37/9 18/96/9 17/38/9
f 22/39/10 24/97/10 17/40/10
f 19/42/11 18/98/11 23/43/11
f 25/99/1 26/100/1 27/101/1
f 27/101/8 29/102/8 30/103/8
f 29/102/3 31/104/3 32/105/3
f 31/57/9 26/106/9 25/107/9
f 30/53/10 32/108/10 25/54/10
f 27/56/11 26/109/11 31/57/11
f 33/59/1 34/110/1 35/60/1
f 35/60/8 37/63/8 38/62/8
f 37/63/3 39/65/3 40/64/3
f 39/65/9 34/111/9 33/66/9
f 38/67/10 40/112/10 33/68/10
f 35/70/11 34/113/11 39/71/11
f 41/73/1 42/114/1 43/74/1
f 43/74/2 45/77/2 46/76/2
f 45/77/3 47/79/3 48/78/3
f 47/79/4 42/115/4 41/80/4
f 46/81/5 48/116/6 41/82/5
f 43/84/12 42/117/12 47/85/12
