# Blender v2.92.0 Alpha OBJ File: ''
# www.blender.org
mtllib banner_2.mtl
o Cube_Cube.001
v -6.846503 -6.846503 0.040954
v -6.846503 6.846503 0.040954
v -6.846503 -6.846503 -0.040954
v -6.846503 6.846503 -0.040954
v 6.846503 -6.846503 0.040954
v 6.846503 6.846503 0.040954
v 6.846503 -6.846503 -0.040954
v 6.846503 6.846503 -0.040954
vt 0.310651 0.050400
vt 0.247535 0.113515
vt 0.247535 0.050400
vt 0.996618 1.001785
vt 0.003382 0.008548
vt 0.996619 0.008548
vt 0.159651 0.060630
vt 0.096535 0.123746
vt 0.096535 0.060630
vt 0.999371 0.996570
vt 0.000629 -0.002172
vt 0.999371 -0.002172
vt 0.033420 0.123746
vt 0.033420 0.060630
vt 0.222766 0.060630
vt 0.159651 0.123746
vt 0.310651 0.113515
vt 0.003382 1.001785
vt 0.000629 0.996570
vt 0.222766 0.123746
vn -1.0000 0.0000 0.0000
vn 0.0000 0.0000 -1.0000
vn 1.0000 0.0000 0.0000
vn 0.0000 0.0000 1.0000
vn 0.0000 -1.0000 0.0000
vn 0.0000 1.0000 0.0000
usemtl Material.001
s off
f 2/1/1 3/2/1 1/3/1
f 4/4/2 7/5/2 3/6/2
f 8/7/3 5/8/3 7/9/3
f 6/10/4 1/11/4 5/12/4
f 7/9/5 1/13/5 3/14/5
f 4/15/6 6/16/6 8/7/6
f 2/1/1 4/17/1 3/2/1
f 4/4/2 8/18/2 7/5/2
f 8/7/3 6/16/3 5/8/3
f 6/10/4 2/19/4 1/11/4
f 7/9/5 5/8/5 1/13/5
f 4/15/6 2/20/6 6/16/6
